<svg width="1440" height="1659" viewBox="0 0 1440 1659" fill="none" xmlns="http://www.w3.org/2000/svg">
<path fill-rule="evenodd" clip-rule="evenodd" d="M1040.26 9.6876e-08C1040.4 9.74437e-05 1040.53 0.026948 1040.66 0.0790141C1040.78 0.13108 1040.89 0.20734 1040.99 0.303428L1044 3.3145C1044.1 3.4104 1044.17 3.52423 1044.22 3.64949C1044.28 3.77475 1044.3 3.90898 1044.3 4.04451V26.6356C1044.3 26.9091 1044.19 27.1714 1044 27.3656L1040.99 30.3766C1040.8 30.5694 1040.53 30.6778 1040.26 30.6783H1010.84C1010.57 30.6781 1010.31 30.5696 1010.12 30.3766L1007.1 27.3709C1006.91 27.1768 1006.8 26.9145 1006.8 26.6409V4.04451C1006.8 3.90898 1006.83 3.77475 1006.88 3.64949C1006.93 3.52423 1007.01 3.4104 1007.1 3.3145L1010.12 0.303428C1010.21 0.207236 1010.32 0.130892 1010.45 0.0788098C1010.57 0.026728 1010.71 -5.87889e-05 1010.84 9.6876e-08H984.706C984.841 9.74437e-05 984.976 0.026948 985.101 0.0790141C985.226 0.13108 985.34 0.20734 985.436 0.303428L988.447 3.3145C988.543 3.4104 988.619 3.52423 988.67 3.64949C988.722 3.77475 988.749 3.90898 988.749 4.04451V26.6356C988.748 26.9091 988.64 27.1714 988.447 27.3656L985.436 30.3766C985.242 30.5694 984.979 30.6778 984.706 30.6783H955.289C955.016 30.6781 954.754 30.5696 954.561 30.3766L951.548 27.3709C951.356 27.1768 951.247 26.9145 951.247 26.6409V4.04451C951.247 3.90898 951.273 3.77475 951.325 3.64949C951.377 3.52423 951.453 3.4104 951.548 3.3145L954.561 0.303428C954.656 0.207236 954.77 0.130892 954.895 0.0788098C955.02 0.0268423 955.153 5.8851e-05 955.289 9.6876e-08H929.151C929.287 9.74437e-05 929.421 0.026948 929.546 0.0790141C929.672 0.13108 929.785 0.20734 929.881 0.303428L932.892 3.3145C932.988 3.4104 933.064 3.52423 933.116 3.64949C933.167 3.77475 933.194 3.90898 933.194 4.04451V26.6356C933.193 26.9091 933.085 27.1714 932.892 27.3656L929.881 30.3766C929.687 30.5694 929.425 30.6778 929.151 30.6783H899.735C899.462 30.6781 899.2 30.5696 899.007 30.3766L895.994 27.3709C895.801 27.1768 895.693 26.9145 895.692 26.6409V4.04451C895.692 3.90898 895.719 3.77475 895.77 3.64949C895.822 3.52423 895.898 3.4104 895.994 3.3145L899.007 0.303428C899.102 0.207236 899.215 0.130892 899.34 0.0788098C899.465 0.0268423 899.599 5.8851e-05 899.734 9.6876e-08H873.597C873.732 9.74437e-05 873.867 0.026948 873.992 0.0790141C874.117 0.13108 874.231 0.20734 874.327 0.303428L877.338 3.3145C877.433 3.4104 877.509 3.52423 877.561 3.64949C877.613 3.77475 877.639 3.90898 877.639 4.04451V26.6356C877.639 26.9091 877.53 27.1714 877.338 27.3656L874.327 30.3766C874.132 30.5694 873.87 30.6778 873.597 30.6783H844.18C843.907 30.6781 843.645 30.5696 843.452 30.3766L840.439 27.3709C840.246 27.1768 840.138 26.9145 840.137 26.6409V4.04451C840.137 3.90898 840.164 3.77475 840.216 3.64949C840.267 3.52423 840.343 3.4104 840.439 3.3145L843.452 0.303428C843.547 0.207236 843.661 0.130892 843.786 0.0788098C843.91 0.0268423 844.044 5.8851e-05 844.179 9.6876e-08H818.042C818.178 9.74437e-05 818.312 0.026948 818.437 0.0790141C818.562 0.13108 818.676 0.20734 818.772 0.303428L821.783 3.3145C821.879 3.4104 821.955 3.52423 822.006 3.64949C822.058 3.77475 822.085 3.90898 822.085 4.04451V26.6356C822.084 26.9091 821.976 27.1714 821.783 27.3656L818.772 30.3766C818.578 30.5694 818.315 30.6778 818.042 30.6783H788.626C788.352 30.6781 788.091 30.5696 787.897 30.3766L784.884 27.3709C784.692 27.1768 784.583 26.9145 784.583 26.6409V4.04451C784.583 3.90898 784.609 3.77475 784.661 3.64949C784.713 3.52423 784.789 3.4104 784.884 3.3145L787.897 0.303428C787.993 0.207236 788.106 0.130892 788.231 0.0788098C788.356 0.0268423 788.49 5.8851e-05 788.625 9.6876e-08H762.487C762.623 9.74437e-05 762.757 0.026948 762.883 0.0790141C763.008 0.13108 763.122 0.20734 763.217 0.303428L766.228 3.3145C766.324 3.4104 766.4 3.52423 766.452 3.64949C766.504 3.77475 766.53 3.90898 766.53 4.04451V26.6356C766.53 26.9091 766.421 27.1714 766.228 27.3656L763.217 30.3766C763.023 30.5694 762.761 30.6778 762.487 30.6783H733.071C732.798 30.6781 732.536 30.5696 732.343 30.3766L729.33 27.3709C729.137 27.1768 729.029 26.9145 729.028 26.6409V4.04451C729.028 3.90898 729.055 3.77475 729.106 3.64949C729.158 3.52423 729.234 3.4104 729.33 3.3145L732.343 0.303428C732.438 0.207236 732.552 0.130892 732.677 0.0788098C732.801 0.0268423 732.935 5.8851e-05 733.07 9.6876e-08H706.933C707.068 9.74437e-05 707.203 0.026948 707.328 0.0790141C707.453 0.13108 707.567 0.20734 707.663 0.303428L710.674 3.3145C710.77 3.4104 710.846 3.52423 710.897 3.64949C710.949 3.77475 710.976 3.90898 710.975 4.04451V26.6356C710.975 26.9091 710.867 27.1714 710.674 27.3656L707.663 30.3766C707.469 30.5694 707.206 30.6778 706.933 30.6783H677.516C677.243 30.6781 676.981 30.5696 676.788 30.3766L673.775 27.3709C673.583 27.1768 673.474 26.9145 673.474 26.6409V4.04451C673.474 3.90898 673.5 3.77475 673.552 3.64949C673.604 3.52423 673.68 3.4104 673.775 3.3145L676.788 0.303428C676.883 0.207236 676.997 0.130892 677.122 0.0788098C677.247 0.0268423 677.38 5.8851e-05 677.515 9.6876e-08H651.378C651.514 9.74437e-05 651.648 0.026948 651.773 0.0790141C651.899 0.13108 652.012 0.20734 652.108 0.303428L655.119 3.3145C655.215 3.4104 655.291 3.52423 655.343 3.64949C655.394 3.77475 655.421 3.90898 655.421 4.04451V26.6356C655.42 26.9091 655.312 27.1714 655.119 27.3656L652.108 30.3766C651.914 30.5694 651.652 30.6778 651.378 30.6783H621.962C621.689 30.6781 621.427 30.5696 621.234 30.3766L618.221 27.3709C618.028 27.1768 617.919 26.9145 617.919 26.6409V4.04451C617.919 3.90898 617.945 3.77475 617.997 3.64949C618.049 3.52423 618.125 3.4104 618.221 3.3145L621.234 0.303428C621.329 0.207236 621.442 0.130892 621.567 0.0788098C621.692 0.0268423 621.826 5.8851e-05 621.961 9.6876e-08H595.823C595.959 9.74437e-05 596.093 0.026948 596.219 0.0790141C596.344 0.13108 596.458 0.20734 596.553 0.303428L599.565 3.3145C599.66 3.4104 599.736 3.52423 599.788 3.64949C599.84 3.77475 599.866 3.90898 599.866 4.04451V26.6356C599.866 26.9091 599.757 27.1714 599.565 27.3656L596.553 30.3766C596.359 30.5694 596.097 30.6778 595.823 30.6783H566.407C566.134 30.6781 565.872 30.5696 565.679 30.3766L562.666 27.3709C562.473 27.1768 562.365 26.9145 562.364 26.6409V4.04451C562.364 3.90898 562.391 3.77475 562.443 3.64949C562.494 3.52423 562.57 3.4104 562.666 3.3145L565.679 0.303428C565.774 0.207236 565.888 0.130892 566.013 0.0788098C566.137 0.0268423 566.271 5.8851e-05 566.406 9.6876e-08H540.269C540.405 9.74437e-05 540.539 0.026948 540.664 0.0790141C540.789 0.13108 540.903 0.20734 540.999 0.303428L544.01 3.3145C544.106 3.4104 544.182 3.52423 544.233 3.64949C544.285 3.77475 544.312 3.90898 544.312 4.04451V26.6356C544.311 26.9091 544.203 27.1714 544.01 27.3656L540.999 30.3766C540.805 30.5694 540.542 30.6778 540.269 30.6783H510.853C510.579 30.6781 510.318 30.5696 510.124 30.3766L507.111 27.3709C506.919 27.1768 506.81 26.9145 506.81 26.6409V4.04451C506.81 3.90898 506.836 3.77475 506.888 3.64949C506.94 3.52423 507.016 3.4104 507.111 3.3145L510.124 0.303428C510.22 0.207236 510.333 0.130892 510.458 0.0788098C510.583 0.0268423 510.716 5.8851e-05 510.852 9.6876e-08H484.714C484.85 9.74437e-05 484.984 0.026948 485.109 0.0790141C485.235 0.13108 485.349 0.20734 485.444 0.303428L488.455 3.3145C488.551 3.4104 488.627 3.52423 488.679 3.64949C488.731 3.77475 488.757 3.90898 488.757 4.04451V26.6356C488.756 26.9091 488.648 27.1714 488.455 27.3656L485.444 30.3766C485.25 30.5694 484.988 30.6778 484.714 30.6783H455.298C455.025 30.6781 454.763 30.5696 454.57 30.3766L451.557 27.3709C451.364 27.1768 451.256 26.9145 451.255 26.6409V4.04451C451.255 3.90898 451.281 3.77475 451.333 3.64949C451.385 3.52423 451.461 3.4104 451.557 3.3145L454.57 0.303428C454.665 0.207236 454.778 0.130892 454.903 0.0788098C455.028 0.0268423 455.162 5.8851e-05 455.297 9.6876e-08H429.16C429.295 9.74437e-05 429.43 0.026948 429.555 0.0790141C429.68 0.13108 429.794 0.20734 429.89 0.303428L432.901 3.3145C432.996 3.4104 433.072 3.52423 433.124 3.64949C433.176 3.77475 433.202 3.90898 433.202 4.04451V26.6356C433.202 26.9091 433.093 27.1714 432.901 27.3656L429.89 30.3766C429.696 30.5694 429.433 30.6778 429.16 30.6783H399.743C399.47 30.6781 399.208 30.5696 399.015 30.3766L396.002 27.3709C395.809 27.1768 395.701 26.9145 395.701 26.6409V4.04451C395.7 3.90898 395.727 3.77475 395.779 3.64949C395.83 3.52423 395.906 3.4104 396.002 3.3145L399.015 0.303428C399.11 0.207236 399.224 0.130892 399.349 0.0788098C399.473 0.0268423 399.607 5.8851e-05 399.742 9.6876e-08H373.605C373.741 9.74437e-05 373.875 0.026948 374 0.0790141C374.125 0.13108 374.239 0.20734 374.335 0.303428L377.346 3.3145C377.442 3.4104 377.518 3.52423 377.57 3.64949C377.621 3.77475 377.648 3.90898 377.648 4.04451V26.6356C377.647 26.9091 377.539 27.1714 377.346 27.3656L374.335 30.3766C374.141 30.5694 373.879 30.6778 373.605 30.6783H344.189C343.916 30.6781 343.654 30.5696 343.46 30.3766L340.448 27.3709C340.255 27.1768 340.146 26.9145 340.146 26.6409V4.04451C340.146 3.90898 340.172 3.77475 340.224 3.64949C340.276 3.52423 340.352 3.4104 340.448 3.3145L343.46 0.303428C343.556 0.207236 343.669 0.130892 343.794 0.0788098C343.919 0.0268423 344.053 5.8851e-05 344.188 9.6876e-08H318.05C318.186 9.74437e-05 318.32 0.026948 318.446 0.0790141C318.571 0.13108 318.685 0.20734 318.78 0.303428L321.791 3.3145C321.887 3.4104 321.963 3.52423 322.015 3.64949C322.067 3.77475 322.093 3.90898 322.093 4.04451V26.6356C322.093 26.9091 321.984 27.1714 321.791 27.3656L318.78 30.3766C318.586 30.5694 318.324 30.6778 318.05 30.6783H288.634C288.361 30.6781 288.099 30.5696 287.906 30.3766L284.893 27.3709C284.7 27.1768 284.592 26.9145 284.591 26.6409V4.04451C284.591 3.90898 284.618 3.77475 284.669 3.64949C284.721 3.52423 284.797 3.4104 284.893 3.3145L287.906 0.303428C288.001 0.207236 288.115 0.130892 288.24 0.0788098C288.364 0.0268423 288.498 5.8851e-05 288.633 9.6876e-08H262.496C262.631 9.74437e-05 262.766 0.026948 262.891 0.0790141C263.016 0.13108 263.13 0.20734 263.226 0.303428L266.237 3.3145C266.333 3.4104 266.409 3.52423 266.46 3.64949C266.512 3.77475 266.539 3.90898 266.538 4.04451V26.6356C266.538 26.9091 266.43 27.1714 266.237 27.3656L263.226 30.3766C263.032 30.5694 262.769 30.6778 262.496 30.6783H233.079C232.806 30.6781 232.544 30.5696 232.351 30.3766L229.338 27.3709C229.146 27.1768 229.037 26.9145 229.037 26.6409V4.04451C229.037 3.90898 229.063 3.77475 229.115 3.64949C229.167 3.52423 229.243 3.4104 229.338 3.3145L232.351 0.303428C232.446 0.207236 232.56 0.130892 232.685 0.0788098C232.81 0.0268423 232.943 5.8851e-05 233.078 9.6876e-08H206.941C207.077 9.74437e-05 207.211 0.026948 207.336 0.0790141C207.462 0.13108 207.575 0.20734 207.671 0.303428L210.682 3.3145C210.778 3.4104 210.854 3.52423 210.906 3.64949C210.957 3.77475 210.984 3.90898 210.984 4.04451V26.6356C210.983 26.9091 210.875 27.1714 210.682 27.3656L207.671 30.3766C207.477 30.5694 207.215 30.6778 206.941 30.6783H177.525C177.252 30.6781 176.99 30.5696 176.797 30.3766L173.784 27.3709C173.591 27.1768 173.483 26.9145 173.482 26.6409V4.04451C173.482 3.90898 173.508 3.77475 173.56 3.64949C173.612 3.52423 173.688 3.4104 173.784 3.3145L176.797 0.303428C176.892 0.207236 177.005 0.130892 177.13 0.0788098C177.255 0.0268423 177.389 5.8851e-05 177.524 9.6876e-08H151.387C151.522 9.74437e-05 151.657 0.026948 151.782 0.0790141C151.907 0.13108 152.021 0.20734 152.117 0.303428L155.128 3.3145C155.223 3.4104 155.299 3.52423 155.351 3.64949C155.403 3.77475 155.429 3.90898 155.429 4.04451V26.6356C155.429 26.9091 155.32 27.1714 155.128 27.3656L152.117 30.3766C151.922 30.5694 151.66 30.6778 151.387 30.6783H121.97C121.697 30.6781 121.435 30.5696 121.242 30.3766L118.229 27.3709C118.036 27.1768 117.928 26.9145 117.927 26.6409V4.04451C117.927 3.90898 117.954 3.77475 118.006 3.64949C118.057 3.52423 118.133 3.4104 118.229 3.3145L121.242 0.303428C121.337 0.207236 121.451 0.130892 121.576 0.0788098C121.7 0.0268423 121.834 5.8851e-05 121.969 9.6876e-08H95.8319C95.9675 9.74437e-05 96.1019 0.026948 96.2271 0.0790141C96.3524 0.13108 96.4661 0.20734 96.5619 0.303428L99.573 3.3145C99.6687 3.4104 99.7447 3.52423 99.7964 3.64949C99.8482 3.77475 99.8748 3.90898 99.8746 4.04451V26.6356C99.8741 26.9091 99.7657 27.1714 99.573 27.3656L96.5619 30.3766C96.3678 30.5694 96.1055 30.6778 95.8319 30.6783H66.4155C66.1424 30.6781 65.8805 30.5696 65.6873 30.3766L62.6744 27.3709C62.4817 27.1768 62.3733 26.9145 62.3728 26.6409V4.04451C62.3727 3.90898 62.3992 3.77475 62.451 3.64949C62.5027 3.52423 62.5787 3.4104 62.6744 3.3145L65.6873 0.303428C65.7826 0.207236 65.896 0.130892 66.021 0.0788098C66.1457 0.0268423 66.2795 5.8851e-05 66.4146 9.6876e-08H40.2773C40.413 9.74437e-05 40.5473 0.026948 40.6725 0.0790141C40.7978 0.13108 40.9116 0.20734 41.0073 0.303428L44.0184 3.3145C44.1142 3.4104 44.1901 3.52423 44.2419 3.64949C44.2936 3.77475 44.3202 3.90898 44.32 4.04451V26.6356C44.3195 26.9091 44.2111 27.1714 44.0184 27.3656L41.0073 30.3766C40.8132 30.5694 40.5509 30.6778 40.2773 30.6783H10.8609C10.5878 30.6781 10.326 30.5696 10.1327 30.3766L7.11987 27.3709C6.92712 27.1768 6.81873 26.9145 6.81822 26.6409V4.04451C6.81808 3.90898 6.84465 3.77475 6.89641 3.64949C6.94816 3.52423 7.0241 3.4104 7.11987 3.3145L10.1327 0.303428C10.228 0.207236 10.3415 0.130892 10.4665 0.0788098C10.5912 0.0268423 10.7249 5.8851e-05 10.86 9.6876e-08H-32.2453L-32.2454 1658.61H1472.25V9.6876e-08H1429.14C1429.28 9.74437e-05 1429.41 0.026948 1429.54 0.0790141C1429.66 0.13108 1429.78 0.20734 1429.87 0.303428L1432.88 3.3145C1432.98 3.4104 1433.06 3.52423 1433.11 3.64949C1433.16 3.77475 1433.19 3.90898 1433.19 4.04451V26.6356C1433.18 26.9091 1433.08 27.1714 1432.88 27.3656L1429.87 30.3766C1429.68 30.5694 1429.42 30.6778 1429.14 30.6783H1399.73C1399.45 30.6781 1399.19 30.5696 1399 30.3766L1395.99 27.3709C1395.79 27.1768 1395.68 26.9145 1395.68 26.6409V4.04451C1395.68 3.90898 1395.71 3.77475 1395.76 3.64949C1395.81 3.52423 1395.89 3.4104 1395.99 3.3145L1399 0.303428C1399.09 0.207236 1399.21 0.130892 1399.33 0.0788098C1399.46 0.026728 1399.59 -5.87889e-05 1399.73 9.6876e-08H1373.59C1373.72 9.74437e-05 1373.86 0.026948 1373.98 0.0790141C1374.11 0.13108 1374.22 0.20734 1374.32 0.303428L1377.33 3.3145C1377.42 3.4104 1377.5 3.52423 1377.55 3.64949C1377.6 3.77475 1377.63 3.90898 1377.63 4.04451V26.6356C1377.63 26.9091 1377.52 27.1714 1377.33 27.3656L1374.32 30.3766C1374.12 30.5694 1373.86 30.6778 1373.59 30.6783H1344.17C1343.9 30.6781 1343.64 30.5696 1343.44 30.3766L1340.43 27.3709C1340.24 27.1768 1340.13 26.9145 1340.13 26.6409V4.04451C1340.13 3.90898 1340.16 3.77475 1340.21 3.64949C1340.26 3.52423 1340.33 3.4104 1340.43 3.3145L1343.44 0.303428C1343.54 0.207236 1343.65 0.130892 1343.78 0.0788098C1343.9 0.026728 1344.04 -5.87889e-05 1344.17 9.6876e-08H1318.03C1318.17 9.74437e-05 1318.3 0.026948 1318.43 0.0790141C1318.55 0.13108 1318.67 0.20734 1318.76 0.303428L1321.77 3.3145C1321.87 3.4104 1321.95 3.52423 1322 3.64949C1322.05 3.77475 1322.08 3.90898 1322.08 4.04451V26.6356C1322.08 26.9091 1321.97 27.1714 1321.77 27.3656L1318.76 30.3766C1318.57 30.5694 1318.31 30.6778 1318.03 30.6783H1288.62C1288.34 30.6781 1288.08 30.5696 1287.89 30.3766L1284.88 27.3709C1284.68 27.1768 1284.57 26.9145 1284.57 26.6409V4.04451C1284.57 3.90898 1284.6 3.77475 1284.65 3.64949C1284.7 3.52423 1284.78 3.4104 1284.88 3.3145L1287.89 0.303428C1287.98 0.207236 1288.1 0.130892 1288.22 0.0788098C1288.35 0.026728 1288.48 -5.87889e-05 1288.62 9.6876e-08H1262.48C1262.61 9.74437e-05 1262.75 0.026948 1262.87 0.0790141C1263 0.13108 1263.11 0.20734 1263.21 0.303428L1266.22 3.3145C1266.32 3.4104 1266.39 3.52423 1266.44 3.64949C1266.5 3.77475 1266.52 3.90898 1266.52 4.04451V26.6356C1266.52 26.9091 1266.41 27.1714 1266.22 27.3656L1263.21 30.3766C1263.01 30.5694 1262.75 30.6778 1262.48 30.6783H1233.06C1232.79 30.6781 1232.53 30.5696 1232.33 30.3766L1229.32 27.3709C1229.13 27.1768 1229.02 26.9145 1229.02 26.6409V4.04451C1229.02 3.90898 1229.05 3.77475 1229.1 3.64949C1229.15 3.52423 1229.23 3.4104 1229.32 3.3145L1232.33 0.303428C1232.43 0.207236 1232.54 0.130892 1232.67 0.0788098C1232.79 0.026728 1232.93 -5.87889e-05 1233.06 9.6876e-08H1206.92C1207.06 9.74437e-05 1207.19 0.026948 1207.32 0.0790141C1207.44 0.13108 1207.56 0.20734 1207.65 0.303428L1210.67 3.3145C1210.76 3.4104 1210.84 3.52423 1210.89 3.64949C1210.94 3.77475 1210.97 3.90898 1210.97 4.04451V26.6356C1210.97 26.9091 1210.86 27.1714 1210.67 27.3656L1207.65 30.3766C1207.46 30.5694 1207.2 30.6778 1206.92 30.6783H1177.51C1177.23 30.6781 1176.97 30.5696 1176.78 30.3766L1173.77 27.3709C1173.57 27.1768 1173.47 26.9145 1173.47 26.6409V4.04451C1173.46 3.90898 1173.49 3.77475 1173.54 3.64949C1173.6 3.52423 1173.67 3.4104 1173.77 3.3145L1176.78 0.303428C1176.88 0.207236 1176.99 0.130892 1177.11 0.0788098C1177.24 0.026728 1177.37 -5.87889e-05 1177.51 9.6876e-08H1151.37C1151.51 9.74437e-05 1151.64 0.026948 1151.76 0.0790141C1151.89 0.13108 1152 0.20734 1152.1 0.303428L1155.11 3.3145C1155.21 3.4104 1155.28 3.52423 1155.33 3.64949C1155.39 3.77475 1155.41 3.90898 1155.41 4.04451V26.6356C1155.41 26.9091 1155.3 27.1714 1155.11 27.3656L1152.1 30.3766C1151.91 30.5694 1151.64 30.6778 1151.37 30.6783H1121.95C1121.68 30.6781 1121.42 30.5696 1121.22 30.3766L1118.21 27.3709C1118.02 27.1768 1117.91 26.9145 1117.91 26.6409V4.04451C1117.91 3.90898 1117.94 3.77475 1117.99 3.64949C1118.04 3.52423 1118.12 3.4104 1118.21 3.3145L1121.22 0.303428C1121.32 0.207236 1121.43 0.130892 1121.56 0.0788098C1121.68 0.026728 1121.82 -5.87889e-05 1121.95 9.6876e-08H1095.81C1095.95 9.74437e-05 1096.08 0.026948 1096.21 0.0790141C1096.34 0.13108 1096.45 0.20734 1096.55 0.303428L1099.56 3.3145C1099.65 3.4104 1099.73 3.52423 1099.78 3.64949C1099.83 3.77475 1099.86 3.90898 1099.86 4.04451V26.6356C1099.86 26.9091 1099.75 27.1714 1099.56 27.3656L1096.55 30.3766C1096.35 30.5694 1096.09 30.6778 1095.81 30.6783H1066.4C1066.13 30.6781 1065.86 30.5696 1065.67 30.3766L1062.66 27.3709C1062.46 27.1768 1062.36 26.9145 1062.36 26.6409V4.04451C1062.36 3.90898 1062.38 3.77475 1062.43 3.64949C1062.49 3.52423 1062.56 3.4104 1062.66 3.3145L1065.67 0.303428C1065.77 0.207236 1065.88 0.130892 1066 0.0788098C1066.13 0.026728 1066.26 -5.87889e-05 1066.4 9.6876e-08H1040.26ZM1051.12 19.6032V11.0804C1051.12 10.8108 1051.01 10.5523 1050.82 10.3611L1049.72 9.25987C1049.53 9.06713 1049.26 8.95873 1048.99 8.95823H1046.01V21.7343H1048.98C1049.26 21.7338 1049.52 21.6254 1049.71 21.4327L1050.81 20.3332C1050.91 20.2374 1050.99 20.1237 1051.04 19.9984C1051.09 19.8731 1051.12 19.7388 1051.12 19.6032ZM1005.1 8.95822V21.7432H1002.11C1001.84 21.743 1001.58 21.6345 1001.39 21.4416L1000.28 20.3421C1000.09 20.148 999.984 19.8856 999.983 19.6121V11.0804C999.983 10.8073 1000.09 10.5454 1000.28 10.3522L1001.39 9.25094C1001.58 9.06124 1001.84 8.95604 1002.11 8.95822H1005.1ZM995.563 11.0804V19.6032C995.563 19.7388 995.536 19.8731 995.484 19.9984C995.432 20.1237 995.356 20.2374 995.26 20.3332L994.16 21.4327C993.966 21.6254 993.704 21.7338 993.43 21.7343H990.453V8.95823H993.436C993.709 8.95873 993.971 9.06713 994.166 9.25987L995.265 10.3611C995.455 10.5523 995.562 10.8108 995.563 11.0804ZM949.542 21.7432V8.95822H946.56C946.288 8.95604 946.026 9.06124 945.831 9.25094L944.73 10.3522C944.537 10.5454 944.429 10.8073 944.429 11.0804V19.6121C944.429 19.8856 944.537 20.148 944.73 20.3421L945.831 21.4416C946.025 21.6345 946.287 21.743 946.56 21.7432H949.542ZM940.009 19.6032V11.0804C940.008 10.8108 939.901 10.5523 939.71 10.3611L938.611 9.25987C938.417 9.06713 938.155 8.95873 937.881 8.95823H934.898V21.7343H937.876C938.149 21.7338 938.411 21.6254 938.606 21.4327L939.705 20.3332C939.801 20.2374 939.877 20.1237 939.93 19.9984C939.982 19.8731 940.008 19.7388 940.009 19.6032ZM893.988 8.95822V21.7432H891.005C890.732 21.743 890.47 21.6345 890.277 21.4416L889.176 20.3421C888.983 20.148 888.874 19.8856 888.874 19.6121V11.0804C888.874 10.8073 888.983 10.5454 889.176 10.3522L890.277 9.25094C890.471 9.06124 890.733 8.95604 891.005 8.95822H893.988ZM884.454 11.0804V19.6032C884.454 19.7388 884.427 19.8731 884.375 19.9984C884.323 20.1237 884.247 20.2374 884.15 20.3332L883.051 21.4327C882.857 21.6254 882.595 21.7338 882.321 21.7343H879.344V8.95823H882.326C882.6 8.95873 882.862 9.06713 883.056 9.25987L884.156 10.3611C884.346 10.5523 884.453 10.8108 884.454 11.0804ZM838.433 21.7432V8.95822H835.45C835.179 8.95604 834.917 9.06124 834.722 9.25094L833.621 10.3522C833.428 10.5454 833.319 10.8073 833.319 11.0804V19.6121C833.32 19.8856 833.428 20.148 833.621 20.3421L834.722 21.4416C834.915 21.6345 835.177 21.743 835.45 21.7432H838.433ZM828.899 19.6032V11.0804C828.898 10.8108 828.791 10.5523 828.601 10.3611L827.502 9.25987C827.308 9.06713 827.045 8.95873 826.772 8.95823H823.789V21.7343H826.766C827.04 21.7338 827.302 21.6254 827.496 21.4327L828.596 20.3332C828.692 20.2374 828.768 20.1237 828.82 19.9984C828.872 19.8731 828.899 19.7388 828.899 19.6032ZM782.878 8.95822V21.7432H779.896C779.623 21.743 779.361 21.6345 779.168 21.4416L778.066 20.3421C777.874 20.148 777.765 19.8856 777.765 19.6121V11.0804C777.765 10.8073 777.873 10.5454 778.066 10.3522L779.168 9.25094C779.362 9.06124 779.624 8.95604 779.896 8.95822H782.878ZM773.345 11.0804V19.6032C773.345 19.7388 773.318 19.8731 773.266 19.9984C773.214 20.1237 773.137 20.2374 773.041 20.3332L771.942 21.4327C771.748 21.6254 771.485 21.7338 771.212 21.7343H768.235V8.95823H771.217C771.491 8.95873 771.753 9.06713 771.947 9.25987L773.047 10.3611C773.237 10.5523 773.344 10.8108 773.345 11.0804ZM727.324 21.7432V8.95822H724.341C724.069 8.95604 723.808 9.06124 723.613 9.25094L722.512 10.3522C722.319 10.5454 722.21 10.8073 722.21 11.0804V19.6121C722.211 19.8856 722.319 20.148 722.512 20.3421L723.613 21.4416C723.806 21.6345 724.068 21.743 724.341 21.7432H727.324ZM717.79 19.6032V11.0804C717.789 10.8108 717.682 10.5523 717.492 10.3611L716.393 9.25987C716.198 9.06713 715.936 8.95873 715.663 8.95823H712.68V21.7343H715.657C715.931 21.7338 716.193 21.6254 716.387 21.4327L717.487 20.3332C717.583 20.2374 717.659 20.1237 717.711 19.9984C717.763 19.8731 717.79 19.7388 717.79 19.6032ZM671.769 8.95822V21.7432H668.787C668.513 21.743 668.252 21.6345 668.058 21.4416L666.957 20.3421C666.764 20.148 666.656 19.8856 666.655 19.6121V11.0804C666.656 10.8073 666.764 10.5454 666.957 10.3522L668.058 9.25094C668.253 9.06124 668.515 8.95604 668.787 8.95822H671.769ZM662.235 11.0804V19.6032C662.235 19.7388 662.208 19.8731 662.156 19.9984C662.104 20.1237 662.028 20.2374 661.932 20.3332L660.833 21.4327C660.638 21.6254 660.376 21.7338 660.103 21.7343H657.125V8.95823H660.108C660.381 8.95873 660.644 9.06713 660.838 9.25987L661.937 10.3611C662.128 10.5523 662.235 10.8108 662.235 11.0804ZM616.214 21.7432V8.95822H613.232C612.96 8.95604 612.698 9.06124 612.504 9.25094L611.402 10.3522C611.209 10.5454 611.101 10.8073 611.101 11.0804V19.6121C611.101 19.8856 611.21 20.148 611.402 20.3421L612.504 21.4416C612.697 21.6345 612.959 21.743 613.232 21.7432H616.214ZM606.681 19.6032V11.0804C606.68 10.8108 606.573 10.5523 606.383 10.3611L605.283 9.25987C605.089 9.06713 604.827 8.95873 604.553 8.95823H601.571V21.7343H604.548C604.821 21.7338 605.084 21.6254 605.278 21.4327L606.377 20.3332C606.474 20.2374 606.55 20.1237 606.602 19.9984C606.654 19.8731 606.681 19.7388 606.681 19.6032ZM560.66 8.95822V21.7432H557.677C557.404 21.743 557.142 21.6345 556.949 21.4416L555.848 20.3421C555.655 20.148 555.547 19.8856 555.546 19.6121V11.0804C555.546 10.8073 555.655 10.5454 555.848 10.3522L556.949 9.25094C557.144 9.06124 557.406 8.95604 557.677 8.95822H560.66ZM551.126 11.0804V19.6032C551.126 19.7388 551.099 19.8731 551.047 19.9984C550.995 20.1237 550.919 20.2374 550.823 20.3332L549.723 21.4327C549.529 21.6254 549.267 21.7338 548.993 21.7343H546.016V8.95823H548.999C549.272 8.95873 549.535 9.06713 549.729 9.25987L550.828 10.3611C551.018 10.5523 551.125 10.8108 551.126 11.0804ZM505.105 21.7432V8.95822H502.123C501.851 8.95604 501.589 9.06124 501.395 9.25094L500.293 10.3522C500.1 10.5454 499.992 10.8073 499.992 11.0804V19.6121C499.992 19.8856 500.101 20.148 500.293 20.3421L501.395 21.4416C501.588 21.6345 501.85 21.743 502.123 21.7432H505.105ZM495.572 19.6032V11.0804C495.571 10.8108 495.464 10.5523 495.273 10.3611L494.174 9.25987C493.98 9.06713 493.718 8.95873 493.444 8.95823H490.461V21.7343H493.439C493.712 21.7338 493.975 21.6254 494.169 21.4327L495.268 20.3332C495.364 20.2374 495.44 20.1237 495.493 19.9984C495.545 19.8731 495.571 19.7388 495.572 19.6032ZM449.551 8.95822V21.7432H446.568C446.295 21.743 446.033 21.6345 445.84 21.4416L444.739 20.3421C444.546 20.148 444.437 19.8856 444.437 19.6121V11.0804C444.437 10.8073 444.546 10.5454 444.739 10.3522L445.84 9.25094C446.035 9.06124 446.296 8.95604 446.568 8.95822H449.551ZM440.017 11.0804V19.6032C440.017 19.7388 439.99 19.8731 439.938 19.9984C439.886 20.1237 439.81 20.2374 439.714 20.3332L438.614 21.4327C438.42 21.6254 438.158 21.7338 437.884 21.7343H434.907V8.95823H437.889C438.163 8.95873 438.425 9.06713 438.619 9.25987L439.719 10.3611C439.909 10.5523 440.016 10.8108 440.017 11.0804ZM393.996 21.7432V8.95822H391.013C390.742 8.95604 390.48 9.06124 390.285 9.25094L389.184 10.3522C388.991 10.5454 388.883 10.8073 388.882 11.0804V19.6121C388.883 19.8856 388.991 20.148 389.184 20.3421L390.285 21.4416C390.479 21.6345 390.74 21.743 391.013 21.7432H393.996ZM384.462 19.6032V11.0804C384.462 10.8108 384.354 10.5523 384.164 10.3611L383.065 9.25987C382.871 9.06713 382.608 8.95873 382.335 8.95823H379.352V21.7343H382.329C382.603 21.7338 382.865 21.6254 383.059 21.4327L384.159 20.3332C384.255 20.2374 384.331 20.1237 384.383 19.9984C384.435 19.8731 384.462 19.7388 384.462 19.6032ZM338.441 8.95822V21.7432H335.459C335.186 21.743 334.924 21.6345 334.731 21.4416L333.629 20.3421C333.437 20.148 333.328 19.8856 333.328 19.6121V11.0804C333.328 10.8073 333.436 10.5454 333.629 10.3522L334.731 9.25094C334.925 9.06124 335.187 8.95604 335.459 8.95822H338.441ZM328.908 11.0804V19.6032C328.908 19.7388 328.881 19.8731 328.829 19.9984C328.777 20.1237 328.7 20.2374 328.604 20.3332L327.505 21.4327C327.311 21.6254 327.048 21.7338 326.775 21.7343H323.798V8.95823H326.78C327.054 8.95873 327.316 9.06713 327.51 9.25987L328.61 10.3611C328.8 10.5523 328.907 10.8108 328.908 11.0804ZM282.887 21.7432V8.95822H279.904C279.632 8.95604 279.371 9.06124 279.176 9.25094L278.075 10.3522C277.882 10.5454 277.773 10.8073 277.773 11.0804V19.6121C277.774 19.8856 277.882 20.148 278.075 20.3421L279.176 21.4416C279.369 21.6345 279.631 21.743 279.904 21.7432H282.887ZM273.353 19.6032V11.0804C273.352 10.8108 273.245 10.5523 273.055 10.3611L271.956 9.25987C271.761 9.06713 271.499 8.95873 271.226 8.95823H268.243V21.7343H271.22C271.494 21.7338 271.756 21.6254 271.95 21.4327L273.05 20.3332C273.146 20.2374 273.222 20.1237 273.274 19.9984C273.326 19.8731 273.353 19.7388 273.353 19.6032ZM227.332 8.95822V21.7432H224.35C224.077 21.743 223.815 21.6345 223.621 21.4416L222.52 20.3421C222.327 20.148 222.219 19.8856 222.218 19.6121V11.0804C222.219 10.8073 222.327 10.5454 222.52 10.3522L223.621 9.25094C223.816 9.06124 224.078 8.95604 224.35 8.95822H227.332ZM217.798 11.0804V19.6032C217.798 19.7388 217.772 19.8731 217.719 19.9984C217.667 20.1237 217.591 20.2374 217.495 20.3332L216.396 21.4327C216.201 21.6254 215.939 21.7338 215.666 21.7343H212.688V8.95823H215.671C215.944 8.95873 216.207 9.06713 216.401 9.25987L217.5 10.3611C217.691 10.5523 217.798 10.8108 217.798 11.0804ZM171.778 21.7432V8.95822H168.795C168.523 8.95604 168.261 9.06124 168.067 9.25094L166.965 10.3522C166.773 10.5454 166.664 10.8073 166.664 11.0804V19.6121C166.664 19.8856 166.773 20.148 166.965 20.3421L168.067 21.4416C168.26 21.6345 168.522 21.743 168.795 21.7432H171.778ZM162.244 19.6032V11.0804C162.243 10.8108 162.136 10.5523 161.946 10.3611L160.846 9.25987C160.652 9.06713 160.39 8.95873 160.116 8.95823H157.134V21.7343H160.111C160.385 21.7338 160.647 21.6254 160.841 21.4327L161.94 20.3332C162.037 20.2374 162.113 20.1237 162.165 19.9984C162.217 19.8731 162.244 19.7388 162.244 19.6032ZM116.223 8.95822V21.7432H113.24C112.967 21.743 112.705 21.6345 112.512 21.4416L111.411 20.3421C111.218 20.148 111.11 19.8856 111.109 19.6121V11.0804C111.109 10.8073 111.218 10.5454 111.411 10.3522L112.512 9.25094C112.707 9.06124 112.969 8.95604 113.24 8.95822H116.223ZM106.689 11.0804V19.6032C106.689 19.7388 106.662 19.8731 106.61 19.9984C106.558 20.1237 106.482 20.2374 106.386 20.3332L105.286 21.4327C105.092 21.6254 104.83 21.7338 104.556 21.7343H101.579V8.95823H104.562C104.835 8.95873 105.098 9.06713 105.292 9.25987L106.391 10.3611C106.581 10.5523 106.688 10.8108 106.689 11.0804ZM60.6682 21.7432V8.95822H57.6857C57.4139 8.95604 57.1522 9.06124 56.9575 9.25094L55.8562 10.3522C55.6633 10.5454 55.5548 10.8073 55.5546 11.0804V19.6121C55.5551 19.8856 55.6635 20.148 55.8562 20.3421L56.9575 21.4416C57.1508 21.6345 57.4126 21.743 57.6857 21.7432H60.6682ZM51.1347 19.6032V11.0804C51.1338 10.8108 51.0267 10.5523 50.8366 10.3611L49.7371 9.25987C49.543 9.06713 49.2807 8.95873 49.0071 8.95823H46.0246V21.7343H49.0017C49.2753 21.7338 49.5376 21.6254 49.7318 21.4327L50.8312 20.3332C50.9273 20.2374 51.0036 20.1237 51.0556 19.9984C51.1077 19.8731 51.1346 19.7388 51.1347 19.6032ZM5.11369 8.95822V21.7432H2.13117C1.85807 21.743 1.5962 21.6345 1.40295 21.4416L0.301682 20.3421C0.108932 20.148 0.000549316 19.8856 4.57764e-05 19.6121V11.0804C0.000240326 10.8073 0.108707 10.5454 0.301682 10.3522L1.40295 9.25094C1.59764 9.06124 1.85934 8.95604 2.13117 8.95822H5.11369ZM1106.67 11.0804V19.6032C1106.67 19.7388 1106.65 19.8731 1106.59 19.9984C1106.54 20.1237 1106.46 20.2374 1106.37 20.3332L1105.27 21.4327C1105.08 21.6254 1104.81 21.7338 1104.54 21.7343H1101.56V8.95823H1104.54C1104.82 8.95873 1105.08 9.06713 1105.27 9.25987L1106.37 10.3611C1106.56 10.5523 1106.67 10.8108 1106.67 11.0804ZM1060.65 21.7432V8.95822H1057.67C1057.4 8.95604 1057.14 9.06124 1056.94 9.25094L1055.84 10.3522C1055.65 10.5454 1055.54 10.8073 1055.54 11.0804V19.6121C1055.54 19.8856 1055.65 20.148 1055.84 20.3421L1056.94 21.4416C1057.13 21.6345 1057.4 21.743 1057.67 21.7432H1060.65ZM1162.23 19.6032V11.0804C1162.23 10.8108 1162.12 10.5523 1161.93 10.3611L1160.83 9.25987C1160.64 9.06713 1160.37 8.95873 1160.1 8.95823H1157.12V21.7343H1160.09C1160.37 21.7338 1160.63 21.6254 1160.82 21.4327L1161.92 20.3332C1162.02 20.2374 1162.1 20.1237 1162.15 19.9984C1162.2 19.8731 1162.23 19.7388 1162.23 19.6032ZM1116.21 8.95822V21.7432H1113.22C1112.95 21.743 1112.69 21.6345 1112.5 21.4416L1111.39 20.3421C1111.2 20.148 1111.09 19.8856 1111.09 19.6121V11.0804C1111.09 10.8073 1111.2 10.5454 1111.39 10.3522L1112.5 9.25094C1112.69 9.06124 1112.95 8.95604 1113.22 8.95822H1116.21ZM1217.78 11.0804V19.6032C1217.78 19.7388 1217.75 19.8731 1217.7 19.9984C1217.65 20.1237 1217.57 20.2374 1217.48 20.3332L1216.38 21.4327C1216.18 21.6254 1215.92 21.7338 1215.65 21.7343H1212.67V8.95823H1215.65C1215.93 8.95873 1216.19 9.06713 1216.38 9.25987L1217.48 10.3611C1217.67 10.5523 1217.78 10.8108 1217.78 11.0804ZM1171.76 21.7432V8.95822H1168.78C1168.51 8.95604 1168.24 9.06124 1168.05 9.25094L1166.95 10.3522C1166.76 10.5454 1166.65 10.8073 1166.65 11.0804V19.6121C1166.65 19.8856 1166.76 20.148 1166.95 20.3421L1168.05 21.4416C1168.24 21.6345 1168.51 21.743 1168.78 21.7432H1171.76ZM1273.34 19.6032V11.0804C1273.34 10.8108 1273.23 10.5523 1273.04 10.3611L1271.94 9.25987C1271.74 9.06713 1271.48 8.95873 1271.21 8.95823H1268.23V21.7343H1271.2C1271.48 21.7338 1271.74 21.6254 1271.93 21.4327L1273.03 20.3332C1273.13 20.2374 1273.21 20.1237 1273.26 19.9984C1273.31 19.8731 1273.34 19.7388 1273.34 19.6032ZM1227.32 8.95822V21.7432H1224.33C1224.06 21.743 1223.8 21.6345 1223.6 21.4416L1222.5 20.3421C1222.31 20.148 1222.2 19.8856 1222.2 19.6121V11.0804C1222.2 10.8073 1222.31 10.5454 1222.5 10.3522L1223.6 9.25094C1223.8 9.06124 1224.06 8.95604 1224.33 8.95822H1227.32ZM1328.89 11.0804V19.6032C1328.89 19.7388 1328.86 19.8731 1328.81 19.9984C1328.76 20.1237 1328.68 20.2374 1328.59 20.3332L1327.49 21.4327C1327.29 21.6254 1327.03 21.7338 1326.76 21.7343H1323.78V8.95823H1326.76C1327.04 8.95873 1327.3 9.06713 1327.49 9.25987L1328.59 10.3611C1328.78 10.5523 1328.89 10.8108 1328.89 11.0804ZM1282.87 21.7432V8.95822H1279.89C1279.62 8.95604 1279.35 9.06124 1279.16 9.25094L1278.06 10.3522C1277.86 10.5454 1277.76 10.8073 1277.76 11.0804V19.6121C1277.76 19.8856 1277.86 20.148 1278.06 20.3421L1279.16 21.4416C1279.35 21.6345 1279.61 21.743 1279.89 21.7432H1282.87ZM1384.45 19.6032V11.0804C1384.44 10.8108 1384.34 10.5523 1384.15 10.3611L1383.05 9.25987C1382.85 9.06713 1382.59 8.95873 1382.32 8.95823H1379.34V21.7343H1382.31C1382.59 21.7338 1382.85 21.6254 1383.04 21.4327L1384.14 20.3332C1384.24 20.2374 1384.31 20.1237 1384.37 19.9984C1384.42 19.8731 1384.45 19.7388 1384.45 19.6032ZM1338.42 8.95822V21.7432H1335.44C1335.17 21.743 1334.91 21.6345 1334.71 21.4416L1333.61 20.3421C1333.42 20.148 1333.31 19.8856 1333.31 19.6121V11.0804C1333.31 10.8073 1333.42 10.5454 1333.61 10.3522L1334.71 9.25094C1334.91 9.06124 1335.17 8.95604 1335.44 8.95822H1338.42ZM1440 11.0804V19.6032C1440 19.7388 1439.97 19.8731 1439.92 19.9984C1439.87 20.1237 1439.79 20.2374 1439.7 20.3332L1438.6 21.4327C1438.4 21.6254 1438.14 21.7338 1437.87 21.7343H1434.89V8.95823H1437.87C1438.15 8.95873 1438.41 9.06713 1438.6 9.25987L1439.7 10.3611C1439.89 10.5523 1440 10.8108 1440 11.0804ZM1393.98 21.7432V8.95822H1391C1390.72 8.95604 1390.46 9.06124 1390.27 9.25094L1389.17 10.3522C1388.97 10.5454 1388.87 10.8073 1388.87 11.0804V19.6121C1388.87 19.8856 1388.97 20.148 1389.17 20.3421L1390.27 21.4416C1390.46 21.6345 1390.72 21.743 1391 21.7432H1393.98Z" fill="black"/>
<path fill-rule="evenodd" clip-rule="evenodd" d="M1013.18 23.8886C1014.7 25.57 1018.08 25.57 1025.55 25.57C1039.19 25.57 1039.19 25.4968 1039.19 15.3374C1039.19 7.08235 1039.19 5.49025 1032.02 5.18325H1031.88L1029.09 7.97657C1028.73 8.32687 1028.26 8.52389 1027.76 8.52452H1023.35C1022.85 8.5242 1022.37 8.3271 1022.02 7.97657L1019.23 5.18861H1019.09C1011.91 5.4956 1011.91 7.0877 1011.91 15.3427C1011.91 19.9673 1011.91 22.5007 1013.18 23.8886ZM1018.02 11.773H1020.05C1020.47 11.773 1020.82 12.1182 1020.82 12.544V18.1414C1020.82 18.5672 1020.47 18.9124 1020.05 18.9124H1018.02C1017.59 18.9124 1017.25 18.5672 1017.25 18.1414V12.544C1017.25 12.1182 1017.59 11.773 1018.02 11.773ZM1033.09 11.773H1031.06C1030.63 11.773 1030.29 12.1182 1030.29 12.544V18.1414C1030.29 18.5672 1030.63 18.9124 1031.06 18.9124H1033.09C1033.51 18.9124 1033.86 18.5672 1033.86 18.1414V12.544C1033.86 12.1182 1033.51 11.773 1033.09 11.773Z" fill="black"/>
<path fill-rule="evenodd" clip-rule="evenodd" d="M969.999 25.57C962.527 25.57 959.149 25.57 957.621 23.8886C956.36 22.5007 956.36 19.9673 956.36 15.3427C956.36 7.0877 956.36 5.4956 963.532 5.18861H963.675L966.47 7.97657C966.82 8.3271 967.295 8.5242 967.791 8.52452H972.208C972.704 8.52389 973.18 8.32687 973.531 7.97657L976.324 5.18325H976.467C983.637 5.49025 983.637 7.08235 983.637 15.3374C983.635 25.4968 983.635 25.57 969.999 25.57ZM964.492 11.773H962.465C962.039 11.773 961.694 12.1182 961.694 12.544V18.1414C961.694 18.5672 962.039 18.9124 962.465 18.9124H964.492C964.918 18.9124 965.263 18.5672 965.263 18.1414V12.544C965.263 12.1182 964.918 11.773 964.492 11.773ZM975.505 11.773H977.532C977.958 11.773 978.303 12.1182 978.303 12.544V18.1414C978.303 18.5672 977.958 18.9124 977.532 18.9124H975.505C975.079 18.9124 974.734 18.5672 974.734 18.1414V12.544C974.734 12.1182 975.079 11.773 975.505 11.773Z" fill="black"/>
<path fill-rule="evenodd" clip-rule="evenodd" d="M902.067 23.8886C903.594 25.57 906.973 25.57 914.444 25.57C928.08 25.57 928.08 25.4968 928.082 15.3374C928.082 7.08235 928.082 5.49025 920.912 5.18325H920.769L917.976 7.97657C917.625 8.32687 917.15 8.52389 916.654 8.52452H912.236C911.74 8.5242 911.265 8.3271 910.915 7.97657L908.12 5.18861H907.977C900.806 5.4956 900.806 7.0877 900.806 15.3427C900.806 19.9673 900.806 22.5007 902.067 23.8886ZM906.91 11.773H908.938C909.363 11.773 909.709 12.1182 909.709 12.544V18.1414C909.709 18.5672 909.363 18.9124 908.938 18.9124H906.91C906.484 18.9124 906.139 18.5672 906.139 18.1414V12.544C906.139 12.1182 906.484 11.773 906.91 11.773ZM921.978 11.773H919.95C919.524 11.773 919.179 12.1182 919.179 12.544V18.1414C919.179 18.5672 919.524 18.9124 919.95 18.9124H921.978C922.404 18.9124 922.749 18.5672 922.749 18.1414V12.544C922.749 12.1182 922.404 11.773 921.978 11.773Z" fill="black"/>
<path fill-rule="evenodd" clip-rule="evenodd" d="M858.889 25.57C851.418 25.57 848.04 25.57 846.512 23.8886C845.251 22.5007 845.251 19.9673 845.251 15.3427C845.251 7.0877 845.251 5.4956 852.423 5.18861H852.565L855.361 7.97657C855.711 8.3271 856.186 8.5242 856.681 8.52452H861.099C861.595 8.52389 862.07 8.32687 862.422 7.97657L865.215 5.18325H865.358C872.527 5.49025 872.527 7.08235 872.527 15.3374C872.526 25.4968 872.526 25.57 858.889 25.57ZM853.383 11.773H851.355C850.93 11.773 850.584 12.1182 850.584 12.544V18.1414C850.584 18.5672 850.93 18.9124 851.355 18.9124H853.383C853.809 18.9124 854.154 18.5672 854.154 18.1414V12.544C854.154 12.1182 853.809 11.773 853.383 11.773ZM864.396 11.773H866.423C866.849 11.773 867.194 12.1182 867.194 12.544V18.1414C867.194 18.5672 866.849 18.9124 866.423 18.9124H864.396C863.97 18.9124 863.625 18.5672 863.625 18.1414V12.544C863.625 12.1182 863.97 11.773 864.396 11.773Z" fill="black"/>
<path fill-rule="evenodd" clip-rule="evenodd" d="M790.957 23.8886C792.485 25.57 795.863 25.57 803.335 25.57C816.971 25.57 816.971 25.4968 816.973 15.3374C816.973 7.08235 816.973 5.49025 809.803 5.18325H809.66L806.867 7.97657C806.516 8.32687 806.04 8.52389 805.544 8.52452H801.127C800.631 8.5242 800.156 8.3271 799.806 7.97657L797.011 5.18861H796.868C789.696 5.4956 789.696 7.0877 789.696 15.3427C789.696 19.9673 789.696 22.5007 790.957 23.8886ZM795.801 11.773H797.828C798.254 11.773 798.599 12.1182 798.599 12.544V18.1414C798.599 18.5672 798.254 18.9124 797.828 18.9124H795.801C795.375 18.9124 795.03 18.5672 795.03 18.1414V12.544C795.03 12.1182 795.375 11.773 795.801 11.773ZM810.869 11.773H808.841C808.415 11.773 808.07 12.1182 808.07 12.544V18.1414C808.07 18.5672 808.415 18.9124 808.841 18.9124H810.869C811.294 18.9124 811.64 18.5672 811.64 18.1414V12.544C811.64 12.1182 811.294 11.773 810.869 11.773Z" fill="black"/>
<path fill-rule="evenodd" clip-rule="evenodd" d="M747.78 25.57C740.309 25.57 736.93 25.57 735.403 23.8886C734.142 22.5007 734.142 19.9673 734.142 15.3427C734.142 7.0877 734.142 5.4956 741.313 5.18861H741.456L744.251 7.97657C744.602 8.3271 745.077 8.5242 745.572 8.52452H749.99C750.486 8.52389 750.961 8.32687 751.312 7.97657L754.106 5.18325H754.248C761.418 5.49025 761.418 7.08235 761.418 15.3374C761.416 25.4968 761.416 25.57 747.78 25.57ZM742.274 11.773H740.246C739.82 11.773 739.475 12.1182 739.475 12.544V18.1414C739.475 18.5672 739.82 18.9124 740.246 18.9124H742.274C742.7 18.9124 743.045 18.5672 743.045 18.1414V12.544C743.045 12.1182 742.7 11.773 742.274 11.773ZM753.286 11.773H755.314C755.74 11.773 756.085 12.1182 756.085 12.544V18.1414C756.085 18.5672 755.74 18.9124 755.314 18.9124H753.286C752.861 18.9124 752.515 18.5672 752.515 18.1414V12.544C752.515 12.1182 752.861 11.773 753.286 11.773Z" fill="black"/>
<path fill-rule="evenodd" clip-rule="evenodd" d="M679.848 23.8886C681.376 25.57 684.754 25.57 692.225 25.57C705.862 25.57 705.862 25.4968 705.864 15.3374C705.864 7.08235 705.864 5.49025 698.694 5.18325H698.551L695.758 7.97657C695.407 8.32687 694.931 8.52389 694.435 8.52452H690.018C689.522 8.5242 689.047 8.3271 688.697 7.97657L685.902 5.18861H685.759C678.587 5.4956 678.587 7.0877 678.587 15.3427C678.587 19.9673 678.587 22.5007 679.848 23.8886ZM684.692 11.773H686.719C687.145 11.773 687.49 12.1182 687.49 12.544V18.1414C687.49 18.5672 687.145 18.9124 686.719 18.9124H684.692C684.266 18.9124 683.92 18.5672 683.92 18.1414V12.544C683.92 12.1182 684.266 11.773 684.692 11.773ZM699.759 11.773H697.732C697.306 11.773 696.961 12.1182 696.961 12.544V18.1414C696.961 18.5672 697.306 18.9124 697.732 18.9124H699.759C700.185 18.9124 700.53 18.5672 700.53 18.1414V12.544C700.53 12.1182 700.185 11.773 699.759 11.773Z" fill="black"/>
<path fill-rule="evenodd" clip-rule="evenodd" d="M636.671 25.57C629.2 25.57 625.821 25.57 624.294 23.8886C623.033 22.5007 623.033 19.9673 623.033 15.3427C623.033 7.0877 623.033 5.4956 630.204 5.18861H630.347L633.142 7.97657C633.492 8.3271 633.967 8.5242 634.463 8.52452H638.88C639.376 8.52389 639.852 8.32687 640.203 7.97657L642.996 5.18325H643.139C650.309 5.49025 650.309 7.08235 650.309 15.3374C650.307 25.4968 650.307 25.57 636.671 25.57ZM631.164 11.773H629.137C628.711 11.773 628.366 12.1182 628.366 12.544V18.1414C628.366 18.5672 628.711 18.9124 629.137 18.9124H631.164C631.59 18.9124 631.936 18.5672 631.936 18.1414V12.544C631.936 12.1182 631.59 11.773 631.164 11.773ZM642.177 11.773H644.205C644.631 11.773 644.976 12.1182 644.976 12.544V18.1414C644.976 18.5672 644.631 18.9124 644.205 18.9124H642.177C641.751 18.9124 641.406 18.5672 641.406 18.1414V12.544C641.406 12.1182 641.751 11.773 642.177 11.773Z" fill="black"/>
<path fill-rule="evenodd" clip-rule="evenodd" d="M568.739 23.8886C570.267 25.57 573.645 25.57 581.116 25.57C594.753 25.57 594.753 25.4968 594.754 15.3374C594.754 7.08235 594.754 5.49025 587.585 5.18325H587.442L584.648 7.97657C584.297 8.32687 583.822 8.52389 583.326 8.52452H578.908C578.413 8.5242 577.938 8.3271 577.588 7.97657L574.792 5.18861H574.65C567.478 5.4956 567.478 7.0877 567.478 15.3427C567.478 19.9673 567.478 22.5007 568.739 23.8886ZM573.582 11.773H575.61C576.036 11.773 576.381 12.1182 576.381 12.544V18.1414C576.381 18.5672 576.036 18.9124 575.61 18.9124H573.582C573.156 18.9124 572.811 18.5672 572.811 18.1414V12.544C572.811 12.1182 573.156 11.773 573.582 11.773ZM588.65 11.773H586.622C586.197 11.773 585.851 12.1182 585.851 12.544V18.1414C585.851 18.5672 586.197 18.9124 586.622 18.9124H588.65C589.076 18.9124 589.421 18.5672 589.421 18.1414V12.544C589.421 12.1182 589.076 11.773 588.65 11.773Z" fill="black"/>
<path fill-rule="evenodd" clip-rule="evenodd" d="M525.562 25.57C518.09 25.57 514.712 25.57 513.184 23.8886C511.923 22.5007 511.923 19.9673 511.923 15.3427C511.923 7.0877 511.923 5.4956 519.095 5.18861H519.238L522.033 7.97657C522.383 8.3271 522.858 8.5242 523.354 8.52452H527.771C528.267 8.52389 528.743 8.32687 529.094 7.97657L531.887 5.18325H532.03C539.2 5.49025 539.2 7.08235 539.2 15.3374C539.198 25.4968 539.198 25.57 525.562 25.57ZM520.055 11.773H518.028C517.602 11.773 517.257 12.1182 517.257 12.544V18.1414C517.257 18.5672 517.602 18.9124 518.028 18.9124H520.055C520.481 18.9124 520.826 18.5672 520.826 18.1414V12.544C520.826 12.1182 520.481 11.773 520.055 11.773ZM531.068 11.773H533.096C533.521 11.773 533.867 12.1182 533.867 12.544V18.1414C533.867 18.5672 533.521 18.9124 533.096 18.9124H531.068C530.642 18.9124 530.297 18.5672 530.297 18.1414V12.544C530.297 12.1182 530.642 11.773 531.068 11.773Z" fill="black"/>
<path fill-rule="evenodd" clip-rule="evenodd" d="M457.63 23.8886C459.157 25.57 462.536 25.57 470.007 25.57C483.643 25.57 483.643 25.4968 483.645 15.3374C483.645 7.08235 483.645 5.49025 476.475 5.18325H476.332L473.539 7.97657C473.188 8.32687 472.713 8.52389 472.217 8.52452H467.799C467.304 8.5242 466.828 8.3271 466.478 7.97657L463.683 5.18861H463.54C456.369 5.4956 456.369 7.0877 456.369 15.3427C456.369 19.9673 456.369 22.5007 457.63 23.8886ZM462.473 11.773H464.501C464.926 11.773 465.272 12.1182 465.272 12.544V18.1414C465.272 18.5672 464.926 18.9124 464.501 18.9124H462.473C462.047 18.9124 461.702 18.5672 461.702 18.1414V12.544C461.702 12.1182 462.047 11.773 462.473 11.773ZM477.541 11.773H475.513C475.087 11.773 474.742 12.1182 474.742 12.544V18.1414C474.742 18.5672 475.087 18.9124 475.513 18.9124H477.541C477.967 18.9124 478.312 18.5672 478.312 18.1414V12.544C478.312 12.1182 477.967 11.773 477.541 11.773Z" fill="black"/>
<path fill-rule="evenodd" clip-rule="evenodd" d="M414.452 25.57C406.981 25.57 403.603 25.57 402.075 23.8886C400.814 22.5007 400.814 19.9673 400.814 15.3427C400.814 7.0877 400.814 5.4956 407.986 5.18861H408.129L410.924 7.97657C411.274 8.3271 411.749 8.5242 412.244 8.52452H416.662C417.158 8.52389 417.633 8.32687 417.985 7.97657L420.778 5.18325H420.921C428.09 5.49025 428.09 7.08235 428.09 15.3374C428.089 25.4968 428.089 25.57 414.452 25.57ZM408.946 11.773H406.918C406.493 11.773 406.147 12.1182 406.147 12.544V18.1414C406.147 18.5672 406.493 18.9124 406.918 18.9124H408.946C409.372 18.9124 409.717 18.5672 409.717 18.1414V12.544C409.717 12.1182 409.372 11.773 408.946 11.773ZM419.959 11.773H421.986C422.412 11.773 422.757 12.1182 422.757 12.544V18.1414C422.757 18.5672 422.412 18.9124 421.986 18.9124H419.959C419.533 18.9124 419.188 18.5672 419.188 18.1414V12.544C419.188 12.1182 419.533 11.773 419.959 11.773Z" fill="black"/>
<path fill-rule="evenodd" clip-rule="evenodd" d="M346.52 23.8886C348.048 25.57 351.426 25.57 358.898 25.57C372.534 25.57 372.534 25.4968 372.536 15.3374C372.536 7.08235 372.536 5.49025 365.366 5.18325H365.223L362.43 7.97657C362.079 8.32687 361.603 8.52389 361.107 8.52452H356.69C356.194 8.5242 355.719 8.3271 355.369 7.97657L352.574 5.18861H352.431C345.26 5.4956 345.26 7.0877 345.26 15.3427C345.26 19.9673 345.26 22.5007 346.52 23.8886ZM351.364 11.773H353.391C353.817 11.773 354.162 12.1182 354.162 12.544V18.1414C354.162 18.5672 353.817 18.9124 353.391 18.9124H351.364C350.938 18.9124 350.593 18.5672 350.593 18.1414V12.544C350.593 12.1182 350.938 11.773 351.364 11.773ZM366.432 11.773H364.404C363.978 11.773 363.633 12.1182 363.633 12.544V18.1414C363.633 18.5672 363.978 18.9124 364.404 18.9124H366.432C366.857 18.9124 367.203 18.5672 367.203 18.1414V12.544C367.203 12.1182 366.857 11.773 366.432 11.773Z" fill="black"/>
<path fill-rule="evenodd" clip-rule="evenodd" d="M303.343 25.57C295.872 25.57 292.493 25.57 290.966 23.8886C289.705 22.5007 289.705 19.9673 289.705 15.3427C289.705 7.0877 289.705 5.4956 296.877 5.18861H297.019L299.814 7.97657C300.165 8.3271 300.64 8.5242 301.135 8.52452H305.553C306.049 8.52389 306.524 8.32687 306.875 7.97657L309.669 5.18325H309.811C316.981 5.49025 316.981 7.08235 316.981 15.3374C316.979 25.4968 316.979 25.57 303.343 25.57ZM297.837 11.773H295.809C295.383 11.773 295.038 12.1182 295.038 12.544V18.1414C295.038 18.5672 295.383 18.9124 295.809 18.9124H297.837C298.263 18.9124 298.608 18.5672 298.608 18.1414V12.544C298.608 12.1182 298.263 11.773 297.837 11.773ZM308.849 11.773H310.877C311.303 11.773 311.648 12.1182 311.648 12.544V18.1414C311.648 18.5672 311.303 18.9124 310.877 18.9124H308.849C308.424 18.9124 308.078 18.5672 308.078 18.1414V12.544C308.078 12.1182 308.424 11.773 308.849 11.773Z" fill="black"/>
<path fill-rule="evenodd" clip-rule="evenodd" d="M235.411 23.8886C236.939 25.57 240.317 25.57 247.788 25.57C261.425 25.57 261.425 25.4968 261.427 15.3374C261.427 7.08235 261.427 5.49025 254.257 5.18325H254.114L251.321 7.97657C250.97 8.32687 250.494 8.52389 249.998 8.52452H245.581C245.085 8.5242 244.61 8.3271 244.26 7.97657L241.465 5.18861H241.322C234.15 5.4956 234.15 7.0877 234.15 15.3427C234.15 19.9673 234.15 22.5007 235.411 23.8886ZM240.255 11.773H242.282C242.708 11.773 243.053 12.1182 243.053 12.544V18.1414C243.053 18.5672 242.708 18.9124 242.282 18.9124H240.255C239.829 18.9124 239.483 18.5672 239.483 18.1414V12.544C239.483 12.1182 239.829 11.773 240.255 11.773ZM255.322 11.773H253.295C252.869 11.773 252.524 12.1182 252.524 12.544V18.1414C252.524 18.5672 252.869 18.9124 253.295 18.9124H255.322C255.748 18.9124 256.093 18.5672 256.093 18.1414V12.544C256.093 12.1182 255.748 11.773 255.322 11.773Z" fill="black"/>
<path fill-rule="evenodd" clip-rule="evenodd" d="M192.234 25.57C184.763 25.57 181.384 25.57 179.857 23.8886C178.596 22.5007 178.596 19.9673 178.596 15.3427C178.596 7.0877 178.596 5.4956 185.767 5.18861H185.91L188.705 7.97657C189.055 8.3271 189.53 8.5242 190.026 8.52452H194.444C194.939 8.52389 195.415 8.32687 195.766 7.97657L198.559 5.18325H198.702C205.872 5.49025 205.872 7.08235 205.872 15.3374C205.87 25.4968 205.87 25.57 192.234 25.57ZM186.728 11.773H184.7C184.274 11.773 183.929 12.1182 183.929 12.544V18.1414C183.929 18.5672 184.274 18.9124 184.7 18.9124H186.728C187.153 18.9124 187.499 18.5672 187.499 18.1414V12.544C187.499 12.1182 187.153 11.773 186.728 11.773ZM197.74 11.773H199.768C200.194 11.773 200.539 12.1182 200.539 12.544V18.1414C200.539 18.5672 200.194 18.9124 199.768 18.9124H197.74C197.314 18.9124 196.969 18.5672 196.969 18.1414V12.544C196.969 12.1182 197.314 11.773 197.74 11.773Z" fill="black"/>
<path fill-rule="evenodd" clip-rule="evenodd" d="M124.302 23.8886C125.83 25.57 129.208 25.57 136.679 25.57C150.316 25.57 150.316 25.4968 150.317 15.3374C150.317 7.08235 150.317 5.49025 143.148 5.18325H143.005L140.212 7.97657C139.86 8.32687 139.385 8.52389 138.889 8.52452H134.471C133.976 8.5242 133.501 8.3271 133.151 7.97657L130.355 5.18861H130.213C123.041 5.4956 123.041 7.0877 123.041 15.3427C123.041 19.9673 123.041 22.5007 124.302 23.8886ZM129.145 11.773H131.173C131.599 11.773 131.944 12.1182 131.944 12.544V18.1414C131.944 18.5672 131.599 18.9124 131.173 18.9124H129.145C128.72 18.9124 128.374 18.5672 128.374 18.1414V12.544C128.374 12.1182 128.72 11.773 129.145 11.773ZM144.213 11.773H142.186C141.76 11.773 141.415 12.1182 141.415 12.544V18.1414C141.415 18.5672 141.76 18.9124 142.186 18.9124H144.213C144.639 18.9124 144.984 18.5672 144.984 18.1414V12.544C144.984 12.1182 144.639 11.773 144.213 11.773Z" fill="black"/>
<path fill-rule="evenodd" clip-rule="evenodd" d="M81.1246 25.57C73.6533 25.57 70.275 25.57 68.7473 23.8886C67.4864 22.5007 67.4864 19.9673 67.4864 15.3427C67.4864 7.0877 67.4864 5.4956 74.658 5.18861H74.8008L77.5959 7.97657C77.9461 8.3271 78.4212 8.5242 78.9167 8.52452H83.3343C83.8302 8.52389 84.3058 8.32687 84.6568 7.97657L87.4501 5.18325H87.5929C94.7627 5.49025 94.7628 7.08235 94.7628 15.3374C94.761 25.4968 94.761 25.57 81.1246 25.57ZM75.6183 11.773H73.5907C73.1648 11.773 72.8196 12.1182 72.8196 12.544V18.1414C72.8196 18.5672 73.1648 18.9124 73.5907 18.9124H75.6183C76.0441 18.9124 76.3893 18.5672 76.3893 18.1414V12.544C76.3893 12.1182 76.0441 11.773 75.6183 11.773ZM86.6309 11.773H88.6585C89.0844 11.773 89.4296 12.1182 89.4296 12.544V18.1414C89.4296 18.5672 89.0844 18.9124 88.6585 18.9124H86.6309C86.2051 18.9124 85.8598 18.5672 85.8598 18.1414V12.544C85.8598 12.1182 86.2051 11.773 86.6309 11.773Z" fill="black"/>
<path fill-rule="evenodd" clip-rule="evenodd" d="M13.1928 23.8886C14.7204 25.57 18.0987 25.57 25.57 25.57C39.2064 25.57 39.2064 25.4968 39.2082 15.3374C39.2082 7.08235 39.2082 5.49025 32.0384 5.18325H31.8956L29.1023 7.97657C28.7512 8.32687 28.2757 8.52389 27.7797 8.52452H23.3621C22.8666 8.5242 22.3916 8.3271 22.0413 7.97657L19.2462 5.18861H19.1035C11.9319 5.4956 11.9319 7.0877 11.9319 15.3427C11.9319 19.9673 11.9319 22.5007 13.1928 23.8886ZM18.0361 11.773H20.0637C20.4896 11.773 20.8348 12.1182 20.8348 12.544V18.1414C20.8348 18.5672 20.4896 18.9124 20.0637 18.9124H18.0361C17.6103 18.9124 17.265 18.5672 17.265 18.1414V12.544C17.265 12.1182 17.6103 11.773 18.0361 11.773ZM33.104 11.773H31.0763C30.6505 11.773 30.3053 12.1182 30.3053 12.544V18.1414C30.3053 18.5672 30.6505 18.9124 31.0763 18.9124H33.104C33.5298 18.9124 33.875 18.5672 33.875 18.1414V12.544C33.875 12.1182 33.5298 11.773 33.104 11.773Z" fill="black"/>
<path fill-rule="evenodd" clip-rule="evenodd" d="M1081.11 25.57C1073.64 25.57 1070.26 25.57 1068.73 23.8886C1067.47 22.5007 1067.47 19.9673 1067.47 15.3427C1067.47 7.0877 1067.47 5.4956 1074.64 5.18861H1074.78L1077.58 7.97657C1077.93 8.3271 1078.4 8.5242 1078.9 8.52452H1083.32C1083.81 8.52389 1084.29 8.32687 1084.64 7.97657L1087.43 5.18325H1087.58C1094.75 5.49025 1094.75 7.08235 1094.75 15.3374C1094.74 25.4968 1094.74 25.57 1081.11 25.57ZM1075.6 11.773H1073.57C1073.15 11.773 1072.8 12.1182 1072.8 12.544V18.1414C1072.8 18.5672 1073.15 18.9124 1073.57 18.9124H1075.6C1076.03 18.9124 1076.37 18.5672 1076.37 18.1414V12.544C1076.37 12.1182 1076.03 11.773 1075.6 11.773ZM1086.61 11.773H1088.64C1089.07 11.773 1089.41 12.1182 1089.41 12.544V18.1414C1089.41 18.5672 1089.07 18.9124 1088.64 18.9124H1086.61C1086.19 18.9124 1085.84 18.5672 1085.84 18.1414V12.544C1085.84 12.1182 1086.19 11.773 1086.61 11.773Z" fill="black"/>
<path fill-rule="evenodd" clip-rule="evenodd" d="M1124.29 23.8886C1125.81 25.57 1129.19 25.57 1136.66 25.57C1150.3 25.57 1150.3 25.4968 1150.3 15.3374C1150.3 7.08235 1150.3 5.49025 1143.13 5.18325H1142.99L1140.19 7.97657C1139.84 8.32687 1139.37 8.52389 1138.87 8.52452H1134.45C1133.96 8.5242 1133.48 8.3271 1133.13 7.97657L1130.34 5.18861H1130.2C1123.02 5.4956 1123.02 7.0877 1123.02 15.3427C1123.02 19.9673 1123.02 22.5007 1124.29 23.8886ZM1129.13 11.773H1131.16C1131.58 11.773 1131.93 12.1182 1131.93 12.544V18.1414C1131.93 18.5672 1131.58 18.9124 1131.16 18.9124H1129.13C1128.7 18.9124 1128.36 18.5672 1128.36 18.1414V12.544C1128.36 12.1182 1128.7 11.773 1129.13 11.773ZM1144.2 11.773H1142.17C1141.74 11.773 1141.4 12.1182 1141.4 12.544V18.1414C1141.4 18.5672 1141.74 18.9124 1142.17 18.9124H1144.2C1144.62 18.9124 1144.97 18.5672 1144.97 18.1414V12.544C1144.97 12.1182 1144.62 11.773 1144.2 11.773Z" fill="black"/>
<path fill-rule="evenodd" clip-rule="evenodd" d="M1192.22 25.57C1184.75 25.57 1181.37 25.57 1179.84 23.8886C1178.58 22.5007 1178.58 19.9673 1178.58 15.3427C1178.58 7.0877 1178.58 5.4956 1185.75 5.18861H1185.89L1188.69 7.97657C1189.04 8.3271 1189.51 8.5242 1190.01 8.52452H1194.43C1194.92 8.52389 1195.4 8.32687 1195.75 7.97657L1198.54 5.18325H1198.69C1205.86 5.49025 1205.86 7.08235 1205.86 15.3374C1205.85 25.4968 1205.85 25.57 1192.22 25.57ZM1186.71 11.773H1184.68C1184.26 11.773 1183.91 12.1182 1183.91 12.544V18.1414C1183.91 18.5672 1184.26 18.9124 1184.68 18.9124H1186.71C1187.14 18.9124 1187.48 18.5672 1187.48 18.1414V12.544C1187.48 12.1182 1187.14 11.773 1186.71 11.773ZM1197.72 11.773H1199.75C1200.18 11.773 1200.52 12.1182 1200.52 12.544V18.1414C1200.52 18.5672 1200.18 18.9124 1199.75 18.9124H1197.72C1197.3 18.9124 1196.95 18.5672 1196.95 18.1414V12.544C1196.95 12.1182 1197.3 11.773 1197.72 11.773Z" fill="black"/>
<path fill-rule="evenodd" clip-rule="evenodd" d="M1235.39 23.8886C1236.92 25.57 1240.3 25.57 1247.77 25.57C1261.41 25.57 1261.41 25.4968 1261.41 15.3374C1261.41 7.08235 1261.41 5.49025 1254.24 5.18325H1254.1L1251.3 7.97657C1250.95 8.32687 1250.48 8.52389 1249.98 8.52452H1245.56C1245.07 8.5242 1244.59 8.3271 1244.24 7.97657L1241.45 5.18861H1241.3C1234.13 5.4956 1234.13 7.0877 1234.13 15.3427C1234.13 19.9673 1234.13 22.5007 1235.39 23.8886ZM1240.24 11.773H1242.27C1242.69 11.773 1243.04 12.1182 1243.04 12.544V18.1414C1243.04 18.5672 1242.69 18.9124 1242.27 18.9124H1240.24C1239.81 18.9124 1239.47 18.5672 1239.47 18.1414V12.544C1239.47 12.1182 1239.81 11.773 1240.24 11.773ZM1255.31 11.773H1253.28C1252.85 11.773 1252.51 12.1182 1252.51 12.544V18.1414C1252.51 18.5672 1252.85 18.9124 1253.28 18.9124H1255.31C1255.73 18.9124 1256.08 18.5672 1256.08 18.1414V12.544C1256.08 12.1182 1255.73 11.773 1255.31 11.773Z" fill="black"/>
<path fill-rule="evenodd" clip-rule="evenodd" d="M1303.33 25.57C1295.85 25.57 1292.48 25.57 1290.95 23.8886C1289.69 22.5007 1289.69 19.9673 1289.69 15.3427C1289.69 7.0877 1289.69 5.4956 1296.86 5.18861H1297L1299.8 7.97657C1300.15 8.3271 1300.62 8.5242 1301.12 8.52452H1305.54C1306.03 8.52389 1306.51 8.32687 1306.86 7.97657L1309.65 5.18325H1309.79C1316.96 5.49025 1316.96 7.08235 1316.96 15.3374C1316.96 25.4968 1316.96 25.57 1303.33 25.57ZM1297.82 11.773H1295.79C1295.37 11.773 1295.02 12.1182 1295.02 12.544V18.1414C1295.02 18.5672 1295.37 18.9124 1295.79 18.9124H1297.82C1298.25 18.9124 1298.59 18.5672 1298.59 18.1414V12.544C1298.59 12.1182 1298.25 11.773 1297.82 11.773ZM1308.83 11.773H1310.86C1311.29 11.773 1311.63 12.1182 1311.63 12.544V18.1414C1311.63 18.5672 1311.29 18.9124 1310.86 18.9124H1308.83C1308.41 18.9124 1308.06 18.5672 1308.06 18.1414V12.544C1308.06 12.1182 1308.41 11.773 1308.83 11.773Z" fill="black"/>
<path fill-rule="evenodd" clip-rule="evenodd" d="M1346.5 23.8886C1348.03 25.57 1351.41 25.57 1358.88 25.57C1372.52 25.57 1372.52 25.4968 1372.52 15.3374C1372.52 7.08235 1372.52 5.49025 1365.35 5.18325H1365.21L1362.41 7.97657C1362.06 8.32687 1361.59 8.52389 1361.09 8.52452H1356.67C1356.18 8.5242 1355.7 8.3271 1355.35 7.97657L1352.56 5.18861H1352.41C1345.24 5.4956 1345.24 7.0877 1345.24 15.3427C1345.24 19.9673 1345.24 22.5007 1346.5 23.8886ZM1351.35 11.773H1353.37C1353.8 11.773 1354.15 12.1182 1354.15 12.544V18.1414C1354.15 18.5672 1353.8 18.9124 1353.37 18.9124H1351.35C1350.92 18.9124 1350.58 18.5672 1350.58 18.1414V12.544C1350.58 12.1182 1350.92 11.773 1351.35 11.773ZM1366.41 11.773H1364.39C1363.96 11.773 1363.62 12.1182 1363.62 12.544V18.1414C1363.62 18.5672 1363.96 18.9124 1364.39 18.9124H1366.41C1366.84 18.9124 1367.19 18.5672 1367.19 18.1414V12.544C1367.19 12.1182 1366.84 11.773 1366.41 11.773Z" fill="black"/>
<path fill-rule="evenodd" clip-rule="evenodd" d="M1414.44 25.57C1406.96 25.57 1403.59 25.57 1402.06 23.8886C1400.8 22.5007 1400.8 19.9673 1400.8 15.3427C1400.8 7.0877 1400.8 5.4956 1407.97 5.18861H1408.11L1410.91 7.97657C1411.26 8.3271 1411.73 8.5242 1412.23 8.52452H1416.65C1417.14 8.52389 1417.62 8.32687 1417.97 7.97657L1420.76 5.18325H1420.9C1428.07 5.49025 1428.07 7.08235 1428.07 15.3374C1428.07 25.4968 1428.07 25.57 1414.44 25.57ZM1408.93 11.773H1406.9C1406.48 11.773 1406.13 12.1182 1406.13 12.544V18.1414C1406.13 18.5672 1406.48 18.9124 1406.9 18.9124H1408.93C1409.35 18.9124 1409.7 18.5672 1409.7 18.1414V12.544C1409.7 12.1182 1409.35 11.773 1408.93 11.773ZM1419.94 11.773H1421.97C1422.4 11.773 1422.74 12.1182 1422.74 12.544V18.1414C1422.74 18.5672 1422.4 18.9124 1421.97 18.9124H1419.94C1419.52 18.9124 1419.17 18.5672 1419.17 18.1414V12.544C1419.17 12.1182 1419.52 11.773 1419.94 11.773Z" fill="black"/>
</svg>
